<svg width="958" height="1287" viewBox="0 0 958 1287" fill="none" xmlns="http://www.w3.org/2000/svg">
<path d="M652.683 1286.08C653.002 1286.53 653.626 1286.64 654.077 1286.32L661.427 1281.12C661.878 1280.8 661.985 1280.18 661.666 1279.73C661.348 1279.28 660.724 1279.17 660.273 1279.49L653.74 1284.11L649.122 1277.57C648.804 1277.12 648.18 1277.01 647.728 1277.33C647.277 1277.65 647.17 1278.28 647.489 1278.73L652.683 1286.08ZM654.486 1285.67C654.964 1282.89 655.543 1280.21 656.218 1277.64L654.284 1277.13C653.593 1279.76 653.002 1282.49 652.514 1285.33L654.486 1285.67ZM661.756 1262.64C664.192 1257.68 667.088 1253.19 670.392 1249.1L668.836 1247.84C665.44 1252.05 662.464 1256.66 659.961 1261.76L661.756 1262.64ZM681.745 1237.73C685.83 1234.38 690.276 1231.36 695.036 1228.6L694.032 1226.87C689.192 1229.68 684.656 1232.76 680.478 1236.18L681.745 1237.73ZM709.487 1221.34C714.329 1219.22 719.391 1217.27 724.636 1215.43L723.974 1213.54C718.692 1215.39 713.582 1217.37 708.685 1219.51L709.487 1221.34ZM740.136 1210.42C745.241 1208.89 750.465 1207.42 755.783 1205.96L755.254 1204.03C749.928 1205.49 744.687 1206.97 739.562 1208.51L740.136 1210.42ZM771.528 1201.72C776.734 1200.33 781.998 1198.92 787.291 1197.45L786.757 1195.53C781.474 1196.99 776.218 1198.4 771.012 1199.79L771.528 1201.72ZM802.999 1192.94C808.197 1191.38 813.399 1189.73 818.582 1187.97L817.938 1186.08C812.782 1187.83 807.603 1189.47 802.423 1191.02L802.999 1192.94ZM833.952 1182.35C839.019 1180.35 844.043 1178.21 849 1175.89L848.154 1174.08C843.237 1176.38 838.251 1178.5 833.218 1180.49L833.952 1182.35ZM863.587 1168.42C868.331 1165.76 872.986 1162.89 877.531 1159.8L876.406 1158.15C871.912 1161.2 867.305 1164.04 862.608 1166.67L863.587 1168.42ZM890.635 1149.94C894.788 1146.49 898.816 1142.8 902.7 1138.84L901.272 1137.44C897.437 1141.35 893.459 1145 889.357 1148.41L890.635 1149.94ZM913.559 1126.55C916.89 1122.36 920.078 1117.91 923.106 1113.2L921.423 1112.12C918.431 1116.78 915.282 1121.16 911.993 1125.3L913.559 1126.55ZM931.31 1098.95C933.738 1094.24 936.025 1089.29 938.159 1084.09L936.309 1083.33C934.196 1088.48 931.933 1093.37 929.532 1098.03L931.31 1098.95ZM943.748 1068.79C945.371 1063.77 946.867 1058.54 948.227 1053.1L946.287 1052.61C944.937 1058.01 943.454 1063.2 941.845 1068.17L943.748 1068.79ZM951.722 1037.03C952.699 1031.81 953.562 1026.41 954.307 1020.82L952.325 1020.56C951.584 1026.11 950.726 1031.48 949.757 1036.67L951.722 1037.03ZM956.072 1004.74C956.538 999.402 956.905 993.908 957.167 988.253L955.169 988.16C954.908 993.789 954.544 999.256 954.08 1004.56L956.072 1004.74ZM957.626 972.064C957.685 966.738 957.658 961.277 957.542 955.679L955.542 955.721C955.658 961.298 955.685 966.737 955.626 972.042L957.626 972.064ZM956.969 939.374C956.833 936.594 956.676 933.782 956.498 930.938L954.502 931.062C954.679 933.898 954.836 936.701 954.971 939.472L956.969 939.374ZM956.498 930.938C956.325 928.161 956.095 925.421 955.81 922.717L953.821 922.926C954.103 925.602 954.33 928.314 954.502 931.062L956.498 930.938ZM953.444 906.918C952.405 901.615 951.136 896.462 949.645 891.454L947.729 892.024C949.2 896.97 950.454 902.061 951.482 907.303L953.444 906.918ZM944.331 876.405C942.29 871.443 940.012 866.637 937.507 861.982L935.746 862.929C938.218 867.524 940.466 872.268 942.482 877.166L944.331 876.405ZM929.226 848.324C926.25 843.936 923.053 839.697 919.646 835.599L918.108 836.878C921.475 840.927 924.632 845.114 927.571 849.447L929.226 848.324ZM908.816 823.745C905.115 820.045 901.225 816.473 897.155 813.024L895.862 814.55C899.892 817.964 903.741 821.499 907.402 825.159L908.816 823.745ZM884.506 803.11C880.291 800.049 875.92 797.096 871.4 794.245L870.333 795.937C874.818 798.765 879.153 801.695 883.331 804.729L884.506 803.11ZM857.55 786.077C852.999 783.566 848.322 781.143 843.525 778.805L842.649 780.603C847.417 782.927 852.064 785.334 856.584 787.828L857.55 786.077ZM828.877 772.079C824.119 770.021 819.26 768.035 814.304 766.117L813.582 767.983C818.515 769.891 823.35 771.868 828.083 773.915L828.877 772.079ZM799.151 760.567C794.251 758.868 789.268 757.227 784.208 755.644L783.61 757.552C788.653 759.13 793.616 760.764 798.495 762.456L799.151 760.567ZM768.856 751.075C763.812 749.649 758.7 748.272 753.523 746.943L753.026 748.88C758.188 750.205 763.284 751.578 768.311 753L768.856 751.075ZM738.088 743.162C732.925 741.956 727.704 740.793 722.43 739.669L722.013 741.626C727.275 742.746 732.483 743.907 737.633 745.11L738.088 743.162ZM706.968 736.52C701.766 735.506 696.517 734.528 691.225 733.584L690.874 735.553C696.156 736.495 701.395 737.471 706.586 738.483L706.968 736.52ZM675.588 730.909C670.394 730.058 665.162 729.236 659.895 728.441L659.597 730.419C664.855 731.212 670.079 732.033 675.265 732.883L675.588 730.909ZM644.029 726.142C638.839 725.42 633.619 724.722 628.372 724.047L628.117 726.03C633.357 726.705 638.57 727.402 643.753 728.123L644.029 726.142ZM612.556 722.086C607.301 721.459 602.022 720.852 596.722 720.263L596.502 722.251C601.796 722.839 607.069 723.445 612.319 724.072L612.556 722.086ZM580.956 718.572C575.682 718.025 570.391 717.495 565.085 716.979L564.892 718.97C570.193 719.485 575.48 720.015 580.749 720.561L580.956 718.572ZM549.261 715.488C543.996 715.007 538.72 714.538 533.435 714.081L533.262 716.074C538.544 716.531 543.818 716.999 549.079 717.48L549.261 715.488ZM517.555 712.741C512.281 712.307 507 711.883 501.716 711.466L501.559 713.46C506.841 713.876 512.119 714.301 517.391 714.735L517.555 712.741ZM485.865 710.239C480.578 709.837 475.291 709.442 470.005 709.051L469.857 711.045C475.142 711.436 480.428 711.832 485.713 712.234L485.865 710.239ZM454.131 707.89C448.843 707.507 443.56 707.127 438.283 706.749L438.14 708.743C443.417 709.122 448.7 709.502 453.987 709.885L454.131 707.89ZM422.428 705.614C417.12 705.234 411.822 704.854 406.536 704.473L406.393 706.468C411.679 706.849 416.977 707.229 422.285 707.609L422.428 705.614ZM390.719 703.323C385.41 702.934 380.115 702.541 374.839 702.143L374.689 704.138C379.967 704.535 385.262 704.928 390.573 705.318L390.719 703.323ZM358.962 700.926C353.69 700.514 348.439 700.095 343.211 699.668L343.048 701.662C348.278 702.089 353.532 702.508 358.806 702.92L358.962 700.926ZM327.27 698.332C321.968 697.875 316.694 697.408 311.451 696.929L311.269 698.92C316.516 699.4 321.793 699.868 327.098 700.325L327.27 698.332ZM295.699 695.439C290.352 694.916 285.042 694.378 279.772 693.822L279.563 695.811C284.838 696.367 290.153 696.906 295.504 697.429L295.699 695.439ZM264.084 692.102C258.751 691.493 253.462 690.864 248.223 690.213L247.977 692.197C253.223 692.85 258.518 693.48 263.858 694.089L264.084 692.102ZM232.458 688.161C227.196 687.444 221.991 686.702 216.845 685.931L216.548 687.909C221.704 688.681 226.918 689.425 232.188 690.143L232.458 688.161ZM200.996 683.433C195.781 682.568 190.634 681.67 185.56 680.736L185.198 682.703C190.284 683.639 195.442 684.539 200.669 685.406L200.996 683.433ZM169.764 677.66C164.549 676.586 159.421 675.468 154.386 674.304L153.935 676.252C158.987 677.42 164.131 678.542 169.361 679.619L169.764 677.66ZM138.859 670.483C133.679 669.128 128.613 667.715 123.665 666.241L123.094 668.157C128.064 669.638 133.153 671.057 138.352 672.418L138.859 670.483ZM108.474 661.389C103.405 659.652 98.4835 657.84 93.7172 655.947L92.979 657.806C97.7771 659.711 102.729 661.535 107.826 663.281L108.474 661.389ZM79.0454 649.627C74.2292 647.375 69.6078 645.021 65.1912 642.56L64.2178 644.307C68.6787 646.793 73.3425 649.168 78.1981 651.439L79.0454 649.627ZM51.53 634.149C47.0947 631.123 42.9309 627.954 39.0525 624.635L37.7521 626.154C41.6899 629.524 45.9121 632.737 50.4028 635.801L51.53 634.149ZM27.8203 613.697C24.2605 609.724 21.0567 605.56 18.2265 601.195L16.5483 602.283C19.4378 606.74 22.7053 610.985 26.3306 615.032L27.8203 613.697ZM10.8538 587.436C8.79261 582.659 7.12063 577.666 5.85689 572.445L3.91302 572.916C5.20322 578.246 6.91103 583.347 9.01747 588.229L10.8538 587.436ZM3.39232 557.123C3.1668 554.465 3.03522 551.753 2.9997 548.987L0.999861 549.013C1.03599 551.826 1.16981 554.585 1.39948 557.292L3.39232 557.123ZM2.9997 548.987C2.96524 546.304 3.04228 543.648 3.22815 541.017L1.23312 540.876C1.04331 543.563 0.964692 546.275 0.999861 549.013L2.9997 548.987ZM5.62889 525.535C6.84699 520.489 8.47767 515.538 10.5012 510.678L8.65479 509.909C6.59246 514.863 4.92846 519.914 3.68473 525.066L5.62889 525.535ZM17.5691 496.637C20.1931 492.205 23.1512 487.851 26.4272 483.57L24.8389 482.355C21.5184 486.694 18.5152 491.114 15.8482 495.618L17.5691 496.637ZM36.5536 471.626C40.1066 467.812 43.9148 464.059 47.965 460.363L46.617 458.886C42.5299 462.615 38.6829 466.407 35.0903 470.262L36.5536 471.626ZM59.809 450.259C63.9081 446.978 68.1985 443.743 72.67 440.553L71.5084 438.925C67.009 442.135 62.6891 445.392 58.5592 448.698L59.809 450.259ZM85.5578 431.799C89.9609 428.946 94.5081 426.129 99.1915 423.347L98.1701 421.627C93.4658 424.422 88.8965 427.252 84.4702 430.12L85.5578 431.799ZM112.843 415.543C117.412 413.025 122.092 410.536 126.876 408.075L125.961 406.297C121.161 408.766 116.465 411.264 111.878 413.791L112.843 415.543ZM141.153 400.955C145.816 398.699 150.565 396.466 155.394 394.255L154.561 392.436C149.72 394.653 144.959 396.892 140.282 399.155L141.153 400.955ZM170.115 387.687C174.859 385.623 179.671 383.578 184.546 381.552L183.778 379.705C178.893 381.735 174.072 383.784 169.317 385.853L170.115 387.687ZM199.278 375.556C204.19 373.598 209.158 371.657 214.179 369.732L213.463 367.865C208.434 369.793 203.458 371.737 198.538 373.698L199.278 375.556ZM228.914 364.181C233.872 362.345 238.875 360.522 243.92 358.714L243.245 356.831C238.194 358.642 233.184 360.466 228.219 362.305L228.914 364.181ZM258.907 353.42C263.861 351.695 268.85 349.982 273.871 348.28L273.229 346.386C268.203 348.09 263.209 349.804 258.249 351.531L258.907 353.42ZM289.023 343.207C294.022 341.553 299.048 339.909 304.097 338.275L303.481 336.372C298.428 338.008 293.398 339.653 288.395 341.308L289.023 343.207ZM319.2 333.435C324.256 331.831 329.331 330.235 334.423 328.647L333.828 326.738C328.733 328.327 323.654 329.924 318.595 331.529L319.2 333.435ZM349.58 323.957C354.632 322.406 359.696 320.862 364.769 319.324L364.189 317.41C359.113 318.949 354.047 320.494 348.993 322.045L349.58 323.957ZM380.017 314.73C385.088 313.211 390.165 311.697 395.246 310.189L394.677 308.271C389.595 309.78 384.515 311.295 379.443 312.815L380.017 314.73ZM410.485 305.681C415.566 304.183 420.647 302.69 425.725 301.201L425.162 299.282C420.083 300.771 415.001 302.265 409.919 303.763L410.485 305.681ZM441.012 296.726C446.106 295.236 451.194 293.751 456.273 292.268L455.712 290.348C450.633 291.831 445.545 293.317 440.451 294.806L441.012 296.726ZM471.477 287.826C476.602 286.328 481.714 284.832 486.81 283.337L486.247 281.418C481.152 282.912 476.04 284.408 470.916 285.906L471.477 287.826ZM502.062 278.853C507.13 277.358 512.178 275.865 517.204 274.371L516.634 272.454C511.61 273.947 506.563 275.44 501.496 276.934L502.062 278.853ZM532.571 269.782C537.667 268.252 542.735 266.722 547.772 265.19L547.19 263.277C542.156 264.808 537.089 266.337 531.996 267.867L532.571 269.782ZM562.885 260.561C568.033 258.971 573.144 257.38 578.213 255.785L577.613 253.878C572.547 255.471 567.44 257.061 562.295 258.65L562.885 260.561ZM593.294 250.993C598.383 249.358 603.425 247.719 608.416 246.076L607.79 244.176C602.805 245.818 597.767 247.455 592.683 249.089L593.294 250.993ZM623.607 241.003C628.614 239.307 633.562 237.605 638.447 235.896L637.787 234.008C632.908 235.715 627.966 237.415 622.965 239.109L623.607 241.003ZM653.632 230.486C658.668 228.657 663.628 226.819 668.507 224.972L667.798 223.101C662.929 224.945 657.977 226.78 652.949 228.606L653.632 230.486ZM683.287 219.242C688.349 217.231 693.31 215.208 698.163 213.171L697.389 211.327C692.549 213.359 687.6 215.377 682.549 217.383L683.287 219.242ZM712.494 206.97C717.554 204.711 722.476 202.433 727.253 200.135L726.386 198.333C721.628 200.622 716.722 202.892 711.679 205.144L712.494 206.97ZM741.137 193.179C746.108 190.579 750.889 187.953 755.467 185.297L754.463 183.567C749.913 186.207 745.158 188.819 740.211 191.406L741.137 193.179ZM768.767 177.112C773.474 174.03 777.906 170.905 782.044 167.733L780.827 166.146C776.733 169.284 772.342 172.381 767.671 175.439L768.767 177.112ZM794.231 157.45C798.233 153.698 801.825 149.879 804.979 145.984L803.425 144.726C800.335 148.54 796.807 152.294 792.863 155.991L794.231 157.45ZM813.987 132.421C816.539 127.525 818.408 122.512 819.543 117.372L817.59 116.941C816.496 121.895 814.691 126.743 812.214 131.497L813.987 132.421ZM820.682 101.483C820.305 96.3543 819.217 91.1196 817.384 85.7732L815.492 86.4219C817.274 91.6179 818.324 96.684 818.688 101.63L820.682 101.483ZM810.55 70.9787C808.121 66.775 805.246 62.5034 801.911 58.1604L800.324 59.3785C803.612 63.6598 806.437 67.8591 808.819 71.9796L810.55 70.9787ZM791.227 45.6721C787.88 42.1152 784.232 38.5099 780.276 34.8545L778.919 36.3235C782.844 39.95 786.458 43.5226 789.771 47.0428L791.227 45.6721ZM767.677 23.9018C763.935 20.8277 759.981 17.7185 755.81 14.5731L754.606 16.17C758.756 19.2998 762.688 22.3918 766.407 25.4471L767.677 23.9018ZM742.641 5.02727C740.336 3.41778 737.975 1.79895 735.559 0.170681L734.441 1.82932C736.849 3.45159 739.2 5.06414 741.496 6.66709L742.641 5.02727Z" fill="#48B8FC"/>
</svg>
